<?xml version="1.0" standalone="yes"?>
<svg xmlns="http://www.w3.org/2000/svg" width="800" height="600">
<path style="fill:#e5bfff; stroke:none;" d="M0 0L0 220L95 220C95 212.282 91.3365 191.392 96.6034 185.513C101.612 179.922 116.018 179.351 123 177.279C135.782 173.486 151.677 166.406 165 165.982C177.224 165.593 193.217 173.062 205 176.421C212.339 178.514 229.274 179.796 234.397 185.513C239.663 191.392 236 212.282 236 220L301 220C302.761 214.2 307.795 215.001 313 215C313 208.823 310.331 194.329 314.603 189.51C317.766 185.943 324.816 185.205 329 183L330 215C343.523 215 349.612 216.83 346 232L347 232L348 220L366 220L366 213L382 213L382 259L383 259L383 220L407 220L407 213L423 213L423 267L424 267L424 220L442 220L442 232L443 232L443 215L454 215C454 208.644 451.503 195.463 455.603 190.278C458.826 186.203 466.403 185.047 471 183L471 215L488 215L488 220L517 220L511 228L512 228C526.982 208.745 559.522 206.878 571 231L572 231L565 220L591 220L591 290L592 290L592 183L608 183L608 290L609 290L609 220L639 220L639 221L633 227C646.454 217.634 659.142 208.281 676 217.135C680.464 219.479 683.913 223.133 688 226L683 220L694.004 217.058L715 220L800 220L800 0L0 0z"/>
<path style="fill:#bb8adb; stroke:none;" d="M164 165L164 166C170.28 174.289 166 197.645 166 208L166 320C180.412 314.086 176 299.74 176 286L176 192L203 199.424L214.397 203.564L216 225L216 286L217 286C234.149 262.053 236 239.483 236 211C236 205.2 238.787 189.076 234.397 184.854C230.348 180.961 220.303 180.522 215 179C198.174 174.171 181.138 168.547 164 165M161 166L162 167L161 166z"/>
<path style="fill:#9c8ed1; stroke:none;" d="M162 166L163 167L162 166z"/>
<path style="fill:#6162b0; stroke:none;" d="M114 285L115 285L115 225L116.603 203.563L128 199.291L156 192L156 288C156 299.342 151.552 316.423 166 319L166 215C166 199.951 169.264 180.425 165 166L115 179.859L97.0278 185.728L96 211L97.8981 251L114 285z"/>
<path style="fill:#9c8ed1; stroke:none;" d="M165 166L166 167L165 166M158 167L159 168L158 167z"/>
<path style="fill:#bb8adb; stroke:none;" d="M154 168L155 169L154 168z"/>
<path style="fill:#9c8ed1; stroke:none;" d="M155 168L156 169L155 168M151 169L152 170L151 169z"/>
<path style="fill:#bb8adb; stroke:none;" d="M147 170L148 171L147 170z"/>
<path style="fill:#9c8ed1; stroke:none;" d="M148 170L149 171L148 170z"/>
<path style="fill:#bb8adb; stroke:none;" d="M143 171L144 172L143 171z"/>
<path style="fill:#9c8ed1; stroke:none;" d="M144.667 171.333L145.333 171.667L144.667 171.333z"/>
<path style="fill:#bb8adb; stroke:none;" d="M139 172L140 173L139 172z"/>
<path style="fill:#9c8ed1; stroke:none;" d="M140.667 172.333L141.333 172.667L140.667 172.333z"/>
<path style="fill:#bb8adb; stroke:none;" d="M135 173L136 174L135 173z"/>
<path style="fill:#9c8ed1; stroke:none;" d="M136.667 173.333L137.333 173.667L136.667 173.333M132 174L132 175L135 175L132 174z"/>
<path style="fill:#bb8adb; stroke:none;" d="M128 175L129 176L128 175z"/>
<path style="fill:#9c8ed1; stroke:none;" d="M129 175L130 176L129 175z"/>
<path style="fill:#bb8adb; stroke:none;" d="M125 176L126 177L125 176z"/>
<path style="fill:#9c8ed1; stroke:none;" d="M126 176L127 177L126 176M122 177L123 178L122 177z"/>
<path style="fill:#bb8adb; stroke:none;" d="M118 178L119 179L118 178z"/>
<path style="fill:#9c8ed1; stroke:none;" d="M119 178L120 179L119 178z"/>
<path style="fill:#bb8adb; stroke:none;" d="M114 179L115 180L114 179z"/>
<path style="fill:#9c8ed1; stroke:none;" d="M115.667 179.333L116.333 179.667L115.667 179.333z"/>
<path style="fill:#bb8adb; stroke:none;" d="M110 180L111 181L110 180z"/>
<path style="fill:#9c8ed1; stroke:none;" d="M111.667 180.333L112.333 180.667L111.667 180.333z"/>
<path style="fill:#bb8adb; stroke:none;" d="M106 181L107 182L106 181z"/>
<path style="fill:#9c8ed1; stroke:none;" d="M107 181L107 182L110 182L107 181M103 182L103 183L106 183L103 182z"/>
<path style="fill:#bb8adb; stroke:none;" d="M99 183L100 184L99 183z"/>
<path style="fill:#9c8ed1; stroke:none;" d="M100.667 183.333L101.333 183.667L100.667 183.333z"/>
<path style="fill:#bb8adb; stroke:none;" d="M328 183L329 215L330 215C330 206.565 333.168 189.822 328 183M470 183L471 184L470 183M592 183L593 184L592 183z"/>
<path style="fill:#9c8ed1; stroke:none;" d="M592 290L608 290L608 289L593 289L593 184L608 184C604.648 182.593 594.597 181.267 592.603 185.318C589.126 192.385 592 207.146 592 215L592 290M96.6667 184.333L97.3333 184.667L96.6667 184.333M326 184L327 185L326 184z"/>
<path style="fill:#6162b0; stroke:none;" d="M314 216L302 216L302 231L314 231L314 289L329 289L329 231L346 231L346 216L329 216L329 184L315.028 189.702L314 216z"/>
<path style="fill:#9c8ed1; stroke:none;" d="M467 184L468 185L467 184z"/>
<path style="fill:#6162b0; stroke:none;" d="M455 189L455 216L443 216L443 231L455 231L455 289L471 289L471 231L488 231L488 216L471 216L471 184L455 189M593 184L593 289L608 289L608 184L593 184z"/>
<path style="fill:#bb8adb; stroke:none;" d="M95 185L95 240L96 240L96 203L95 185z"/>
<path style="fill:#9c8ed1; stroke:none;" d="M323 185L324 186L323 185z"/>
<path style="fill:#bb8adb; stroke:none;" d="M464 185L465 186L464 185z"/>
<path style="fill:#9c8ed1; stroke:none;" d="M465 185L466 186L465 185z"/>
<path style="fill:#bb8adb; stroke:none;" d="M320 186L321 187L320 186z"/>
<path style="fill:#9c8ed1; stroke:none;" d="M321 186L322 187L321 186M462 186L463 187L462 186z"/>
<path style="fill:#bb8adb; stroke:none;" d="M317 187L318 188L317 187z"/>
<path style="fill:#9c8ed1; stroke:none;" d="M318 187L319 188L318 187M459 187L460 188L459 187z"/>
<path style="fill:#bb8adb; stroke:none;" d="M314 188L315 189L314 188z"/>
<path style="fill:#9c8ed1; stroke:none;" d="M315 188L316 189L315 188M456.667 188.333L457.333 188.667L456.667 188.333z"/>
<path style="fill:#bb8adb; stroke:none;" d="M313 189L314 190L313 189z"/>
<path style="fill:#9c8ed1; stroke:none;" d="M313 190L313 215L302 215L302 216L314 216L313 190z"/>
<path style="fill:#bb8adb; stroke:none;" d="M454 190L454 215L455 215L454 190z"/>
<path style="fill:#9c8ed1; stroke:none;" d="M153 192L154 193L153 192z"/>
<path style="fill:#e5bfff; stroke:none;" d="M154 192L128 199.769L117.028 203.728L116 220L155 220L154 192z"/>
<path style="fill:#9c8ed1; stroke:none;" d="M155 192L156 193L155 192z"/>
<path style="fill:#e5bfff; stroke:none;" d="M176 192L176 220L215 220L215 287L218 286C213.776 282.745 216 271.067 216 266L216 220C216 215.932 217.721 206.716 215.278 203.333C213.54 200.928 207.715 200.493 205 199.694C195.527 196.91 185.689 193.873 176 192z"/>
<path style="fill:#9c8ed1; stroke:none;" d="M149 193L150 194L149 193z"/>
<path style="fill:#bb8adb; stroke:none;" d="M150 193L151 194L150 193M155 193L155 230L156 230C156 219.351 159.111 202.798 155 193z"/>
<path style="fill:#9c8ed1; stroke:none;" d="M146 194L147 195L146 194M142 195L143 196L142 195z"/>
<path style="fill:#bb8adb; stroke:none;" d="M143 195L144 196L143 195z"/>
<path style="fill:#9c8ed1; stroke:none;" d="M138.667 196.333L139.333 196.667L138.667 196.333z"/>
<path style="fill:#bb8adb; stroke:none;" d="M140 196L141 197L140 196z"/>
<path style="fill:#9c8ed1; stroke:none;" d="M134.667 197.333L135.333 197.667L134.667 197.333z"/>
<path style="fill:#bb8adb; stroke:none;" d="M136 197L137 198L136 197z"/>
<path style="fill:#9c8ed1; stroke:none;" d="M130 198L130 199L133 199L130 198M127.667 199.333L128.333 199.667L127.667 199.333z"/>
<path style="fill:#bb8adb; stroke:none;" d="M129 199L130 200L129 199z"/>
<path style="fill:#9c8ed1; stroke:none;" d="M123.667 200.333L124.333 200.667L123.667 200.333M120 201L121 202L120 201z"/>
<path style="fill:#bb8adb; stroke:none;" d="M121 201L122 202L121 201z"/>
<path style="fill:#9c8ed1; stroke:none;" d="M116.667 202.333L117.333 202.667L116.667 202.333M115 203L115 286L116 286L116 229L115 203M366 213L366 266L367 266L367 214L382 214L366 213M407 213L407 214L423 214L407 213z"/>
<path style="fill:#bb8adb; stroke:none;" d="M535 213L536 214L535 213z"/>
<path style="fill:#9c8ed1; stroke:none;" d="M536 213L536 214L541 214L536 213z"/>
<path style="fill:#6162b0; stroke:none;" d="M568 267C548.78 274.883 530.432 279.012 520 257C536.936 252.968 557.604 256 575 256C575 243.115 573.865 229.147 562.985 220.39C540.908 202.622 507.065 220.065 505.09 247C503.99 262.004 510.117 277.614 524 284.726C533.454 289.569 560.145 293.309 566.972 281.786C569.239 277.961 568 271.301 568 267z"/>
<path style="fill:#9c8ed1; stroke:none;" d="M542 213L542 214L547 214L542 213z"/>
<path style="fill:#bb8adb; stroke:none;" d="M547 213L548 214L547 213M660 213L660 214L663 214L660 213z"/>
<path style="fill:#6162b0; stroke:none;" d="M367 214C367 231.832 361.719 259.857 369.996 276C378.889 293.345 408.733 293.829 418.468 276.996C428.111 260.322 423 232.589 423 214L407 214L407 255C407 260.801 407.901 267.291 402.811 271.347C396.085 276.707 384.744 273.428 382.434 265C378.355 250.118 382 229.45 382 214L367 214z"/>
<path style="fill:#bb8adb; stroke:none;" d="M530 214L531 215L530 214z"/>
<path style="fill:#9c8ed1; stroke:none;" d="M531.667 214.333L532.333 214.667L531.667 214.333M550.667 214.333L551.333 214.667L550.667 214.333z"/>
<path style="fill:#bb8adb; stroke:none;" d="M552 214L553 215L552 214M652 214L653 215L652 214z"/>
<path style="fill:#9c8ed1; stroke:none;" d="M653 214L653 215L656 215L653 214z"/>
<path style="fill:#6162b0; stroke:none;" d="M689 280L689 289L704 289L704 218L689 218L689 227C682.229 222.235 677.374 216.933 669 214.9C613.807 201.495 611.17 302.601 667 292.535C676.217 290.874 681.699 285.176 689 280z"/>
<path style="fill:#9c8ed1; stroke:none;" d="M667.667 214.333L668.333 214.667L667.667 214.333z"/>
<path style="fill:#bb8adb; stroke:none;" d="M669 214L670 215L669 214z"/>
<path style="fill:#9c8ed1; stroke:none;" d="M329 215L329 216L346 216L329 215M443 215L443 216L455 216L443 215M471 215L471 216L487 216L471 215z"/>
<path style="fill:#bb8adb; stroke:none;" d="M487 215L488 216L487 215M527 215L528 216L527 215z"/>
<path style="fill:#9c8ed1; stroke:none;" d="M528 215L529 216L528 215M554 215L555 216L554 215z"/>
<path style="fill:#bb8adb; stroke:none;" d="M555 215L556 216L555 215M649 215L650 216L649 215z"/>
<path style="fill:#9c8ed1; stroke:none;" d="M650 215L651 216L650 215M671.667 215.333L672.333 215.667L671.667 215.333M301 216C301 227.619 300.23 232 313 232L313 274L314.603 288.972L329 290L329 289L314 289L314 231L302 231L301 216z"/>
<path style="fill:#bb8adb; stroke:none;" d="M346 216L346 231L347 231L346 216z"/>
<path style="fill:#9c8ed1; stroke:none;" d="M525.667 216.333L526.333 216.667L525.667 216.333M556.667 216.333L557.333 216.667L556.667 216.333M647.667 216.333L648.333 216.667L647.667 216.333M674 216L675 217L674 216z"/>
<path style="fill:#bb8adb; stroke:none;" d="M675 216L676 217L675 216M523 217L524 218L523 217z"/>
<path style="fill:#9c8ed1; stroke:none;" d="M524 217L525 218L524 217M558 217L559 218L558 217z"/>
<path style="fill:#bb8adb; stroke:none;" d="M559 217L560 218L559 217z"/>
<path style="fill:#9c8ed1; stroke:none;" d="M645 217L646 218L645 217M676 217L677 218L676 217M689 217L689 218L704 218L689 217M522 218L523 219L522 218M560 218L561 219L560 218z"/>
<path style="fill:#bb8adb; stroke:none;" d="M643 218L644 219L643 218z"/>
<path style="fill:#9c8ed1; stroke:none;" d="M678 218L679 219L678 218M688 218L687 227C689.641 224.693 689.296 221.089 688 218z"/>
<path style="fill:#bb8adb; stroke:none;" d="M704 218L704 270L705 270L705 235L704 218z"/>
<path style="fill:#9c8ed1; stroke:none;" d="M520 219L521 220L520 219M642 219L643 220L642 219z"/>
<path style="fill:#bb8adb; stroke:none;" d="M680 219L681 220L680 219z"/>
<path style="fill:#f4d6ff; stroke:none;" d="M0 220L0 600L800 600L800 220L705 220L705 290L688 290L688 282C677.948 288.867 668.989 295.843 656 293.674C622.076 288.009 614.41 241.525 639 221L639 220L609 220L609 290L591 290L591 220L565 220C573.029 232.191 576 242.389 576 257L521 257C528.195 281.453 552.251 271.199 569 266C569 270.876 570.477 278.669 567.397 282.786C564.066 287.238 557.101 288.135 552 288.869C537.942 290.891 524.337 288.952 514.184 277.96C496.747 259.081 504.522 238.322 517 220L488 220L488 232L471 232L471 290L454 290L454 232L442 232L442 220L424 220C424 236.907 428.415 260.885 419.637 276C408.79 294.675 378.342 294.952 368.554 275C361.414 260.446 366 235.947 366 220L348 220C347.999 232.857 342.303 232 331 232L330 290L313 290L313 232L301 232L301 220L236 220C236 243.23 234.907 270.793 215 287L215 220L176 220L176 297C176 305.176 178.405 319.721 166 319.725C152.867 319.73 155 305.852 155 297L155 220L116 220L116 287C98.5586 268.005 95 244.683 95 220L0 220M383 220C383 230.99 383.255 242.014 382.985 253C382.851 258.497 381.015 264.024 384.703 268.867C390.047 275.885 402.677 273.992 405.852 265.996C410.795 253.548 407 233.327 407 220L383 220z"/>
<path style="fill:#9c8ed1; stroke:none;" d="M519 220L520 221L519 220z"/>
<path style="fill:#bb8adb; stroke:none;" d="M563 220L564 221L563 220z"/>
<path style="fill:#9c8ed1; stroke:none;" d="M681 220L682 221L681 220z"/>
<path style="fill:#f4d6ff; stroke:none;" d="M683 220L688 225L688 220L683 220z"/>
<path style="fill:#9c8ed1; stroke:none;" d="M564 221L565 222L564 221M639 221L640 222L639 221M682 221L683 222L682 221z"/>
<path style="fill:#bb8adb; stroke:none;" d="M516 222L517 223L516 222z"/>
<path style="fill:#9c8ed1; stroke:none;" d="M565 222L566 223L565 222M638 222L639 223L638 222M683 222L684 223L683 222z"/>
<path style="fill:#bb8adb; stroke:none;" d="M515 223L516 224L515 223z"/>
<path style="fill:#9c8ed1; stroke:none;" d="M566 223L567 224L566 223M637 223L638 224L637 223M684 223L685 224L684 223z"/>
<path style="fill:#bb8adb; stroke:none;" d="M514 224L515 225L514 224M567 224L568 225L567 224z"/>
<path style="fill:#9c8ed1; stroke:none;" d="M636 224L637 225L636 224M685 224L686 225L685 224z"/>
<path style="fill:#bb8adb; stroke:none;" d="M513 225L514 226L513 225z"/>
<path style="fill:#9c8ed1; stroke:none;" d="M635 225L636 226L635 225M686 225L687 226L686 225M538 226L538 227L545 227L538 226M568 226L569 227L568 226M634 226L635 227L634 226M512 227L513 228L512 227M534 227L535 228L534 227z"/>
<path style="fill:#e5bfff; stroke:none;" d="M532 228L532 229C539.472 228.056 545.018 227.742 552 231C546.891 225.471 538.806 226.736 532 228z"/>
<path style="fill:#bb8adb; stroke:none;" d="M547 227L548 228L547 227z"/>
<path style="fill:#9c8ed1; stroke:none;" d="M548 227L549 228L548 227z"/>
<path style="fill:#bb8adb; stroke:none;" d="M569 227L570 228L569 227M633 227L634 228L633 227z"/>
<path style="fill:#9c8ed1; stroke:none;" d="M511 228L512 229L511 228M531 228L532 229L531 228z"/>
<path style="fill:#f4d6ff; stroke:none;" d="M521 243L558 243C554.84 221.997 525.956 223.964 521 243z"/>
<path style="fill:#9c8ed1; stroke:none;" d="M550 228L551 229L550 228z"/>
<path style="fill:#e5bfff; stroke:none;" d="M632 228L629 233L630 233L632 228M510 229L511 230L510 229M530 229L531 230L530 229z"/>
<path style="fill:#9c8ed1; stroke:none;" d="M551 229L552 230L551 229M570 229L571 230L570 229M632 229L633 230L632 229z"/>
<path style="fill:#e5bfff; stroke:none;" d="M155 230L155 316L156 316L156 257L155 230M509 230L506 237L507 237L509 230z"/>
<path style="fill:#9c8ed1; stroke:none;" d="M528 230L529 231L528 230z"/>
<path style="fill:#e5bfff; stroke:none;" d="M529 230L530 231L529 230z"/>
<path style="fill:#bb8adb; stroke:none;" d="M552 230L553 231L552 230z"/>
<path style="fill:#9c8ed1; stroke:none;" d="M631 230L632 231L631 230M660.667 230.333L661.333 230.667L660.667 230.333z"/>
<path style="fill:#bb8adb; stroke:none;" d="M662 230L663 231L662 230z"/>
<path style="fill:#e5bfff; stroke:none;" d="M663 230L663 231L668 231L663 230z"/>
<path style="fill:#bb8adb; stroke:none;" d="M668 230L669 231L668 230z"/>
<path style="fill:#9c8ed1; stroke:none;" d="M669.667 230.333L670.333 230.667L669.667 230.333z"/>
<path style="fill:#e5bfff; stroke:none;" d="M301 231L302 232L301 231z"/>
<path style="fill:#9c8ed1; stroke:none;" d="M329 231L329 232L346 232L329 231M443 231L443 232L455 232L443 231M471 231L471 232L488 232L471 231M509 231L510 232L509 231M526 231L524 234L526 231z"/>
<path style="fill:#e5bfff; stroke:none;" d="M527.667 231.333L528.333 231.667L527.667 231.333z"/>
<path style="fill:#bb8adb; stroke:none;" d="M553 231L554 232L553 231M571 231L572 232L571 231z"/>
<path style="fill:#9c8ed1; stroke:none;" d="M656.667 231.333L657.333 231.667L656.667 231.333z"/>
<path style="fill:#e5bfff; stroke:none;" d="M646 241L660 232C654.255 231.044 648.761 236.442 646 241z"/>
<path style="fill:#f4d6ff; stroke:none;" d="M660 231.637C630.591 239.996 642.992 283.595 672 275.211C698.962 267.418 686.829 224.012 660 231.637z"/>
<path style="fill:#e5bfff; stroke:none;" d="M671 231L672 232L671 231z"/>
<path style="fill:#bb8adb; stroke:none;" d="M672 231L673 232L672 231z"/>
<path style="fill:#9c8ed1; stroke:none;" d="M673 231L674 232L673 231z"/>
<path style="fill:#bb8adb; stroke:none;" d="M329 232L329 289L330 289L330 250L329 232z"/>
<path style="fill:#e5bfff; stroke:none;" d="M330 232L330 240L331 240L330 232z"/>
<path style="fill:#bb8adb; stroke:none;" d="M454 232L454 250L455 250L454 232z"/>
<path style="fill:#e5bfff; stroke:none;" d="M526 232L527 233L526 232z"/>
<path style="fill:#bb8adb; stroke:none;" d="M554 232L555 233L554 232z"/>
<path style="fill:#e5bfff; stroke:none;" d="M572.333 232.667L572.667 233.333L572.333 232.667z"/>
<path style="fill:#9c8ed1; stroke:none;" d="M630 232L631 233L630 232M654 232L655 233L654 232z"/>
<path style="fill:#bb8adb; stroke:none;" d="M655 232L656 233L655 232z"/>
<path style="fill:#e5bfff; stroke:none;" d="M673 232L673 233L683 239L673 232z"/>
<path style="fill:#9c8ed1; stroke:none;" d="M675 232L676 233L675 232M508 233L509 234L508 233z"/>
<path style="fill:#e5bfff; stroke:none;" d="M525 233L522 238L525 233M554 233L558 243L559 243L554 233z"/>
<path style="fill:#9c8ed1; stroke:none;" d="M555 233L556 234L555 233z"/>
<path style="fill:#bb8adb; stroke:none;" d="M629 233L630 234L629 233z"/>
<path style="fill:#9c8ed1; stroke:none;" d="M652 233L653 234L652 233z"/>
<path style="fill:#bb8adb; stroke:none;" d="M653 233L654 234L653 233z"/>
<path style="fill:#9c8ed1; stroke:none;" d="M677 233L678 234L677 233M556 234L557 235L556 234M572 234L573 235L572 234z"/>
<path style="fill:#e5bfff; stroke:none;" d="M628 234L629 235L628 234z"/>
<path style="fill:#9c8ed1; stroke:none;" d="M629 234L630 235L629 234M651 234L652 235L651 234z"/>
<path style="fill:#bb8adb; stroke:none;" d="M678 234L679 235L678 234z"/>
<path style="fill:#9c8ed1; stroke:none;" d="M507.333 235.667L507.667 236.333L507.333 235.667z"/>
<path style="fill:#bb8adb; stroke:none;" d="M523 235L524 236L523 235z"/>
<path style="fill:#e5bfff; stroke:none;" d="M573 235L574 236L573 235z"/>
<path style="fill:#bb8adb; stroke:none;" d="M628 235L629 236L628 235M650 235L651 236L650 235z"/>
<path style="fill:#9c8ed1; stroke:none;" d="M680 235L681 236L680 235M522 236L523 237L522 236M557 236L558 237L557 236z"/>
<path style="fill:#bb8adb; stroke:none;" d="M573 236L574 237L573 236z"/>
<path style="fill:#e5bfff; stroke:none;" d="M627 236L625 245L626 245L627 236z"/>
<path style="fill:#9c8ed1; stroke:none;" d="M628 236L629 237L628 236M681 236L682 237L681 236z"/>
<path style="fill:#bb8adb; stroke:none;" d="M506 237L507 238L506 237z"/>
<path style="fill:#9c8ed1; stroke:none;" d="M573 237L574 238L573 237M682 237L683 238L682 237z"/>
<path style="fill:#e5bfff; stroke:none;" d="M505 238L504 247L505 247L505 238z"/>
<path style="fill:#9c8ed1; stroke:none;" d="M506.333 238.667L506.667 239.333L506.333 238.667M521 238L522 239L521 238M558.333 238.667L558.667 239.333L558.333 238.667z"/>
<path style="fill:#e5bfff; stroke:none;" d="M574.333 238.667L574.667 239.333L574.333 238.667z"/>
<path style="fill:#9c8ed1; stroke:none;" d="M627.333 238.667L627.667 239.333L627.333 238.667z"/>
<path style="fill:#bb8adb; stroke:none;" d="M647 238L648 239L647 238M521 239L522 240L521 239z"/>
<path style="fill:#9c8ed1; stroke:none;" d="M646 239L647 240L646 239z"/>
<path style="fill:#e5bfff; stroke:none;" d="M683 239L684 240L683 239M95 240L95 244L96 244L95 240M521 240L522 241L521 240z"/>
<path style="fill:#9c8ed1; stroke:none;" d="M574 240L574 243L575 243L574 240M645 240L646 241L645 240M684 240L686 242L684 240z"/>
<path style="fill:#bb8adb; stroke:none;" d="M505 241L506 242L505 241z"/>
<path style="fill:#9c8ed1; stroke:none;" d="M559 241L559 244L560 244L559 241z"/>
<path style="fill:#bb8adb; stroke:none;" d="M626 241L627 242L626 241M645 241L646 242L645 241z"/>
<path style="fill:#e5bfff; stroke:none;" d="M684 241L685 242L684 241z"/>
<path style="fill:#9c8ed1; stroke:none;" d="M505.333 242.667L505.667 243.333L505.333 242.667M520.333 242.667L520.667 243.333L520.333 242.667M626 242L627 243L626 242M644 242L645 243L644 242z"/>
<path style="fill:#e5bfff; stroke:none;" d="M645 242L646 243L645 242z"/>
<path style="fill:#bb8adb; stroke:none;" d="M685 242L686 243L685 242z"/>
<path style="fill:#9c8ed1; stroke:none;" d="M96 243L96 246L97 246L96 243z"/>
<path style="fill:#e5bfff; stroke:none;" d="M235 243L234 252L235 252L235 243z"/>
<path style="fill:#bb8adb; stroke:none;" d="M521 243L521 244L559 244C548.964 239.789 531.911 243 521 243z"/>
<path style="fill:#e5bfff; stroke:none;" d="M575 243L575 257L576 257L575 243z"/>
<path style="fill:#bb8adb; stroke:none;" d="M644 243L645 244L644 243z"/>
<path style="fill:#e5bfff; stroke:none;" d="M685 243L686 244L685 243z"/>
<path style="fill:#9c8ed1; stroke:none;" d="M686 243L687 244L686 243M643 244L644 245L643 244z"/>
<path style="fill:#e5bfff; stroke:none;" d="M644 244L645 245L644 244z"/>
<path style="fill:#bb8adb; stroke:none;" d="M686 244L687 245L686 244M625 245L626 246L625 245M643 245L644 246L643 245z"/>
<path style="fill:#e5bfff; stroke:none;" d="M686.333 245.667L686.667 246.333L686.333 245.667z"/>
<path style="fill:#9c8ed1; stroke:none;" d="M687.333 245.667L687.667 246.333L687.333 245.667z"/>
<path style="fill:#bb8adb; stroke:none;" d="M96 246L97 247L96 246z"/>
<path style="fill:#e5bfff; stroke:none;" d="M624 246L624 257L625 257L624 246z"/>
<path style="fill:#9c8ed1; stroke:none;" d="M625.333 246.667L625.667 247.333L625.333 246.667z"/>
<path style="fill:#e5bfff; stroke:none;" d="M643 246L644 247L643 246M96 247L97 248L96 247z"/>
<path style="fill:#bb8adb; stroke:none;" d="M504 247L504 252L505 252L504 247z"/>
<path style="fill:#9c8ed1; stroke:none;" d="M642.333 247.667L642.667 248.333L642.333 247.667z"/>
<path style="fill:#bb8adb; stroke:none;" d="M687 247L688 248L687 247z"/>
<path style="fill:#e5bfff; stroke:none;" d="M687 248L687 252L688 252L687 248z"/>
<path style="fill:#9c8ed1; stroke:none;" d="M97 249L98 250L97 249z"/>
<path style="fill:#e5bfff; stroke:none;" d="M642.333 249.667L642.667 250.333L642.333 249.667z"/>
<path style="fill:#9c8ed1; stroke:none;" d="M688 249L688 259L689 259L688 249z"/>
<path style="fill:#bb8adb; stroke:none;" d="M97 250L98 251L97 250z"/>
<path style="fill:#e5bfff; stroke:none;" d="M454 250L454 290L455 290C455 278.566 458.411 260.512 454 250M97 251L98 252L97 251M233 252L233 256L234 256L233 252M504 252L507 269L508 269L504 252z"/>
<path style="fill:#9c8ed1; stroke:none;" d="M98 253L99 254L98 253z"/>
<path style="fill:#e5bfff; stroke:none;" d="M98 254L99 255L98 254z"/>
<path style="fill:#9c8ed1; stroke:none;" d="M99 256L100 257L99 256z"/>
<path style="fill:#e5bfff; stroke:none;" d="M232 256L232 259L233 259L232 256z"/>
<path style="fill:#9c8ed1; stroke:none;" d="M521 256L521 257L575 257L557 256L521 256z"/>
<path style="fill:#e5bfff; stroke:none;" d="M642.333 256.667L642.667 257.333L642.333 256.667M687 256L687 260L688 260L687 256M99 257L100 262L101 262L99 257z"/>
<path style="fill:#9c8ed1; stroke:none;" d="M505 257L505 260L506 260L505 257M520 257L521 258L520 257M625 258L625 261L626 261L625 258z"/>
<path style="fill:#bb8adb; stroke:none;" d="M642 258L643 259L642 258z"/>
<path style="fill:#9c8ed1; stroke:none;" d="M100 259L101 260L100 259z"/>
<path style="fill:#e5bfff; stroke:none;" d="M231.333 259.667L231.667 260.333L231.333 259.667M521 259L522 260L521 259z"/>
<path style="fill:#9c8ed1; stroke:none;" d="M642 259L643 260L642 259M521 260L522 261L521 260z"/>
<path style="fill:#e5bfff; stroke:none;" d="M643.333 260.667L643.667 261.333L643.333 260.667z"/>
<path style="fill:#bb8adb; stroke:none;" d="M687 260L688 261L687 260z"/>
<path style="fill:#9c8ed1; stroke:none;" d="M101.333 261.667L101.667 262.333L101.333 261.667z"/>
<path style="fill:#e5bfff; stroke:none;" d="M522 261L523 262L522 261z"/>
<path style="fill:#bb8adb; stroke:none;" d="M625 261L626 262L625 261z"/>
<path style="fill:#e5bfff; stroke:none;" d="M686 261L685 265L686 265L686 261z"/>
<path style="fill:#9c8ed1; stroke:none;" d="M687 261L688 262L687 261z"/>
<path style="fill:#e5bfff; stroke:none;" d="M230 262L231 263L230 262z"/>
<path style="fill:#9c8ed1; stroke:none;" d="M506.333 262.667L506.667 263.333L506.333 262.667z"/>
<path style="fill:#bb8adb; stroke:none;" d="M522 262L523 263L522 262z"/>
<path style="fill:#e5bfff; stroke:none;" d="M625 262L625 265L626 265L625 262z"/>
<path style="fill:#9c8ed1; stroke:none;" d="M643 262L644 263L643 262z"/>
<path style="fill:#e5bfff; stroke:none;" d="M101.333 263.667L101.667 264.333L101.333 263.667M523 263L525 265L523 263M644 263L645 264L644 263z"/>
<path style="fill:#9c8ed1; stroke:none;" d="M686 263L687 264L686 263M102 264L103 265L102 264z"/>
<path style="fill:#e5bfff; stroke:none;" d="M229.333 264.667L229.667 265.333L229.333 264.667M382 264L383 265L382 264M406.333 264.667L406.667 265.333L406.333 264.667z"/>
<path style="fill:#9c8ed1; stroke:none;" d="M422 264L422 267L423 267L422 264M523 264L524 265L523 264M626 264L627 265L626 264M644 264L645 265L644 264z"/>
<path style="fill:#bb8adb; stroke:none;" d="M102 265L103 266L102 265M382 265L383 266L382 265z"/>
<path style="fill:#9c8ed1; stroke:none;" d="M507.333 265.667L507.667 266.333L507.333 265.667z"/>
<path style="fill:#bb8adb; stroke:none;" d="M524 265L525 266L524 265M626 265L627 266L626 265z"/>
<path style="fill:#e5bfff; stroke:none;" d="M645 265L647 269L648 269L645 265z"/>
<path style="fill:#9c8ed1; stroke:none;" d="M685 265L686 266L685 265z"/>
<path style="fill:#e5bfff; stroke:none;" d="M102 266L103 267L102 266z"/>
<path style="fill:#9c8ed1; stroke:none;" d="M103 266L104 267L103 266z"/>
<path style="fill:#bb8adb; stroke:none;" d="M366 266L367 267L366 266z"/>
<path style="fill:#9c8ed1; stroke:none;" d="M382 266L383 267L382 266M406.333 266.667L406.667 267.333L406.333 266.667M524 266L527 269L524 266z"/>
<path style="fill:#e5bfff; stroke:none;" d="M525 266L526 267L525 266M563 268L563 269L569 267L563 268M626.333 266.667L626.667 267.333L626.333 266.667z"/>
<path style="fill:#9c8ed1; stroke:none;" d="M645 266L646 267L645 266z"/>
<path style="fill:#e5bfff; stroke:none;" d="M684 266L685 267L684 266z"/>
<path style="fill:#bb8adb; stroke:none;" d="M103 267L104 268L103 267z"/>
<path style="fill:#e5bfff; stroke:none;" d="M228 267L229 268L228 267M366 267L366 270L367 270L366 267M383 267L384 268L383 267M405 267L406 268L405 267z"/>
<path style="fill:#bb8adb; stroke:none;" d="M422 267L423 268L422 267z"/>
<path style="fill:#e5bfff; stroke:none;" d="M526 267L527 268L526 267z"/>
<path style="fill:#9c8ed1; stroke:none;" d="M566 267L567 268L566 267z"/>
<path style="fill:#bb8adb; stroke:none;" d="M568 267L568 281L569 281L568 267z"/>
<path style="fill:#9c8ed1; stroke:none;" d="M627.333 267.667L627.667 268.333L627.333 267.667z"/>
<path style="fill:#bb8adb; stroke:none;" d="M646 267L647 268L646 267z"/>
<path style="fill:#e5bfff; stroke:none;" d="M683 267L678 273L683 267M103 268L104 269L103 268z"/>
<path style="fill:#9c8ed1; stroke:none;" d="M104 268L105 269L104 268M383 268L384 269L383 268z"/>
<path style="fill:#bb8adb; stroke:none;" d="M405 268L406 269L405 268z"/>
<path style="fill:#e5bfff; stroke:none;" d="M422.333 268.667L422.667 269.333L422.333 268.667z"/>
<path style="fill:#9c8ed1; stroke:none;" d="M508 268L509 269L508 268z"/>
<path style="fill:#e5bfff; stroke:none;" d="M527 268L528 269L527 268z"/>
<path style="fill:#9c8ed1; stroke:none;" d="M564 268L565 269L564 268M683 268L684 269L683 268z"/>
<path style="fill:#bb8adb; stroke:none;" d="M104 269L105 270L104 269z"/>
<path style="fill:#e5bfff; stroke:none;" d="M227 269L228 270L227 269z"/>
<path style="fill:#9c8ed1; stroke:none;" d="M367.333 269.667L367.667 270.333L367.333 269.667z"/>
<path style="fill:#bb8adb; stroke:none;" d="M384 269L385 270L384 269z"/>
<path style="fill:#e5bfff; stroke:none;" d="M404 269L402 272L404 269z"/>
<path style="fill:#9c8ed1; stroke:none;" d="M421.333 269.667L421.667 270.333L421.333 269.667z"/>
<path style="fill:#bb8adb; stroke:none;" d="M508 269L509 270L508 269M528 269L529 270L528 269z"/>
<path style="fill:#e5bfff; stroke:none;" d="M560 269L561 270L560 269z"/>
<path style="fill:#bb8adb; stroke:none;" d="M561 269L562 270L561 269z"/>
<path style="fill:#9c8ed1; stroke:none;" d="M562 269L563 270L562 269z"/>
<path style="fill:#e5bfff; stroke:none;" d="M627 269L628 273L629 273L627 269M648 269L650 271L648 269z"/>
<path style="fill:#9c8ed1; stroke:none;" d="M682 269L683 270L682 269z"/>
<path style="fill:#e5bfff; stroke:none;" d="M104 270L105 271L104 270M226.333 270.667L226.667 271.333L226.333 270.667z"/>
<path style="fill:#bb8adb; stroke:none;" d="M385 270L386 271L385 270z"/>
<path style="fill:#9c8ed1; stroke:none;" d="M404 270L405 271L404 270z"/>
<path style="fill:#e5bfff; stroke:none;" d="M508 270L510 272L508 270z"/>
<path style="fill:#9c8ed1; stroke:none;" d="M509 270L510 271L509 270M529 270L530 271L529 270z"/>
<path style="fill:#e5bfff; stroke:none;" d="M530 270L531 271L530 270M558 270L559 271L558 270z"/>
<path style="fill:#9c8ed1; stroke:none;" d="M559 270L560 271L559 270M628 270L629 271L628 270M648 270L649 271L648 270M681 270L682 271L681 270z"/>
<path style="fill:#e5bfff; stroke:none;" d="M704 270L704 290L705 290L704 270z"/>
<path style="fill:#bb8adb; stroke:none;" d="M105 271L106 272L105 271z"/>
<path style="fill:#e5bfff; stroke:none;" d="M367.333 271.667L367.667 272.333L367.333 271.667z"/>
<path style="fill:#bb8adb; stroke:none;" d="M386 271L387 272L386 271z"/>
<path style="fill:#9c8ed1; stroke:none;" d="M403 271L404 272L403 271z"/>
<path style="fill:#bb8adb; stroke:none;" d="M421 271L422 272L421 271z"/>
<path style="fill:#9c8ed1; stroke:none;" d="M531 271L532 272L531 271z"/>
<path style="fill:#e5bfff; stroke:none;" d="M532 271L533 272L532 271M555 271L556 272L555 271z"/>
<path style="fill:#9c8ed1; stroke:none;" d="M556 271L557 272L556 271z"/>
<path style="fill:#e5bfff; stroke:none;" d="M650 271L651 272L650 271z"/>
<path style="fill:#9c8ed1; stroke:none;" d="M680 271L681 272L680 271z"/>
<path style="fill:#e5bfff; stroke:none;" d="M225.333 272.667L225.667 273.333L225.333 272.667z"/>
<path style="fill:#9c8ed1; stroke:none;" d="M368.333 272.667L368.667 273.333L368.333 272.667M387 272L388 273L387 272z"/>
<path style="fill:#e5bfff; stroke:none;" d="M388.667 272.333L389.333 272.667L388.667 272.333M400 272L401 273L400 272z"/>
<path style="fill:#9c8ed1; stroke:none;" d="M401 272L402 273L401 272M420.333 272.667L420.667 273.333L420.333 272.667z"/>
<path style="fill:#e5bfff; stroke:none;" d="M421 272L422 273L421 272z"/>
<path style="fill:#9c8ed1; stroke:none;" d="M510 272L511 273L510 272M533 272L534 273L533 272z"/>
<path style="fill:#e5bfff; stroke:none;" d="M534.667 272.333L535.333 272.667L534.667 272.333M549 272L549 273L552 273L549 272z"/>
<path style="fill:#bb8adb; stroke:none;" d="M552 272L553 273L552 272z"/>
<path style="fill:#9c8ed1; stroke:none;" d="M553 272L554 273L553 272M629 272L630 273L629 272z"/>
<path style="fill:#bb8adb; stroke:none;" d="M651 272L652 273L651 272z"/>
<path style="fill:#9c8ed1; stroke:none;" d="M679 272L680 273L679 272z"/>
<path style="fill:#e5bfff; stroke:none;" d="M106 273L107 274L106 273z"/>
<path style="fill:#9c8ed1; stroke:none;" d="M390 273L391 274L390 273z"/>
<path style="fill:#bb8adb; stroke:none;" d="M391 273L392 274L391 273z"/>
<path style="fill:#e5bfff; stroke:none;" d="M392 273L392 274L397 274L392 273z"/>
<path style="fill:#bb8adb; stroke:none;" d="M397 273L398 274L397 273z"/>
<path style="fill:#9c8ed1; stroke:none;" d="M398.667 273.333L399.333 273.667L398.667 273.333z"/>
<path style="fill:#e5bfff; stroke:none;" d="M510 273L511 274L510 273z"/>
<path style="fill:#9c8ed1; stroke:none;" d="M536 273L537 274L536 273z"/>
<path style="fill:#bb8adb; stroke:none;" d="M537.667 273.333L538.333 273.667L537.667 273.333z"/>
<path style="fill:#e5bfff; stroke:none;" d="M539 273L539 274L546 274L539 273z"/>
<path style="fill:#bb8adb; stroke:none;" d="M546.667 273.333L547.333 273.667L546.667 273.333z"/>
<path style="fill:#9c8ed1; stroke:none;" d="M548.667 273.333L549.333 273.667L548.667 273.333z"/>
<path style="fill:#bb8adb; stroke:none;" d="M629 273L630 274L629 273z"/>
<path style="fill:#9c8ed1; stroke:none;" d="M652 273L653 274L652 273z"/>
<path style="fill:#e5bfff; stroke:none;" d="M653 273L654 274L653 273M674 274L674 275L678 274L674 274z"/>
<path style="fill:#9c8ed1; stroke:none;" d="M107 274L108 275L107 274z"/>
<path style="fill:#e5bfff; stroke:none;" d="M224.333 274.667L224.667 275.333L224.333 274.667M368 274L370 279L371 279L368 274M420 274L421 275L420 274M511 274L512 275L511 274M629 274L631 276L629 274z"/>
<path style="fill:#9c8ed1; stroke:none;" d="M630 274L631 275L630 274z"/>
<path style="fill:#bb8adb; stroke:none;" d="M654 274L655 275L654 274z"/>
<path style="fill:#e5bfff; stroke:none;" d="M655 274L656 275L655 274z"/>
<path style="fill:#9c8ed1; stroke:none;" d="M676 274L677 275L676 274z"/>
<path style="fill:#e5bfff; stroke:none;" d="M107 275L108 276L107 275z"/>
<path style="fill:#9c8ed1; stroke:none;" d="M369 275L370 276L369 275M419 275L420 276L419 275M512 275L519 282L512 275M655.667 275.333L656.333 275.667L655.667 275.333z"/>
<path style="fill:#e5bfff; stroke:none;" d="M657.667 275.333L658.333 275.667L657.667 275.333M671.667 275.333L672.333 275.667L671.667 275.333z"/>
<path style="fill:#bb8adb; stroke:none;" d="M673 275L674 276L673 275z"/>
<path style="fill:#9c8ed1; stroke:none;" d="M674 275L675 276L674 275M108 276L110 278L108 276z"/>
<path style="fill:#e5bfff; stroke:none;" d="M223 276L224 277L223 276M419 276L420 277L419 276M512 276L513 277L512 276z"/>
<path style="fill:#9c8ed1; stroke:none;" d="M631 276L633 278L631 276M658.667 276.333L659.333 276.667L658.667 276.333z"/>
<path style="fill:#bb8adb; stroke:none;" d="M660 276L661 277L660 276z"/>
<path style="fill:#e5bfff; stroke:none;" d="M661 276L661 277L670 277L661 276z"/>
<path style="fill:#9c8ed1; stroke:none;" d="M670 276L670 277L673 277L670 276z"/>
<path style="fill:#e5bfff; stroke:none;" d="M108 277L109 278L108 277z"/>
<path style="fill:#9c8ed1; stroke:none;" d="M370 277L371 278L370 277z"/>
<path style="fill:#bb8adb; stroke:none;" d="M418 277L419 278L418 277z"/>
<path style="fill:#e5bfff; stroke:none;" d="M513 277L514 278L513 277M631 277L632 278L631 277z"/>
<path style="fill:#9c8ed1; stroke:none;" d="M662 277L662 278L669 278L662 277z"/>
<path style="fill:#e5bfff; stroke:none;" d="M109 278L111 281L109 278M222 278L223 279L222 278z"/>
<path style="fill:#9c8ed1; stroke:none;" d="M371 278L372 279L371 278M417 278L418 279L417 278z"/>
<path style="fill:#e5bfff; stroke:none;" d="M418 278L419 279L418 278M514 278L515 279L514 278M632 278L633 279L632 278z"/>
<path style="fill:#9c8ed1; stroke:none;" d="M110 279L111 280L110 279z"/>
<path style="fill:#e5bfff; stroke:none;" d="M221 279L222 280L221 279z"/>
<path style="fill:#bb8adb; stroke:none;" d="M371 279L372 280L371 279z"/>
<path style="fill:#e5bfff; stroke:none;" d="M417 279L418 280L417 279M515 279L516 280L515 279M633 279L634 280L633 279z"/>
<path style="fill:#9c8ed1; stroke:none;" d="M111 280L112 281L111 280M372 280L373 281L372 280z"/>
<path style="fill:#e5bfff; stroke:none;" d="M416 280L417 281L416 280M516 280L517 281L516 280z"/>
<path style="fill:#9c8ed1; stroke:none;" d="M634 280L640 286L634 280M687 280C689.646 291.076 693.074 290 704 290L704 289L689 289L687 280z"/>
<path style="fill:#bb8adb; stroke:none;" d="M111 281L112 282L111 281z"/>
<path style="fill:#e5bfff; stroke:none;" d="M220 281L221 282L220 281z"/>
<path style="fill:#9c8ed1; stroke:none;" d="M373 281L375 283L373 281z"/>
<path style="fill:#e5bfff; stroke:none;" d="M415 281L416 282L415 281M517 281L518 282L517 281M568 281L566 285L568 281M634 281L635 282L634 281M687 281L688 282L687 281z"/>
<path style="fill:#9c8ed1; stroke:none;" d="M112 282L114 284L112 282z"/>
<path style="fill:#e5bfff; stroke:none;" d="M219 282L220 283L219 282M373 282L374 283L373 282z"/>
<path style="fill:#bb8adb; stroke:none;" d="M414 282L415 283L414 282M519 282L520 283L519 282z"/>
<path style="fill:#9c8ed1; stroke:none;" d="M567 282L568 283L567 282z"/>
<path style="fill:#e5bfff; stroke:none;" d="M635 282L636 283L635 282z"/>
<path style="fill:#9c8ed1; stroke:none;" d="M685 282L681 287L685 282z"/>
<path style="fill:#e5bfff; stroke:none;" d="M686 282L687 283L686 282M112 283L113 284L112 283M218 283L219 284L218 283z"/>
<path style="fill:#9c8ed1; stroke:none;" d="M375 283L376 284L375 283M412 283L411 285L412 283z"/>
<path style="fill:#e5bfff; stroke:none;" d="M413 283L414 284L413 283M520 283L521 284L520 283z"/>
<path style="fill:#9c8ed1; stroke:none;" d="M521 283L522 284L521 283M566 283L567 284L566 283z"/>
<path style="fill:#e5bfff; stroke:none;" d="M636 283L637 284L636 283M685 283L686 284L685 283M113 284L114 285L113 284z"/>
<path style="fill:#bb8adb; stroke:none;" d="M376 284L377 285L376 284z"/>
<path style="fill:#9c8ed1; stroke:none;" d="M377 284L379 286L377 284z"/>
<path style="fill:#e5bfff; stroke:none;" d="M412 284L413 285L412 284M522 284L522 285L529 288L529 287L522 284z"/>
<path style="fill:#9c8ed1; stroke:none;" d="M523 284L524 285L523 284M564.667 284.333L565.333 284.667L564.667 284.333z"/>
<path style="fill:#e5bfff; stroke:none;" d="M637 284L638 285L637 284M684 284L685 285L684 284M114 285L115 286L114 285M377 285L378 286L377 285z"/>
<path style="fill:#bb8adb; stroke:none;" d="M410 285L411 286L410 285z"/>
<path style="fill:#e5bfff; stroke:none;" d="M411 285L412 286L411 285z"/>
<path style="fill:#9c8ed1; stroke:none;" d="M525 285L526 286L525 285M562 285L563 286L562 285z"/>
<path style="fill:#bb8adb; stroke:none;" d="M563 285L564 286L563 285z"/>
<path style="fill:#e5bfff; stroke:none;" d="M564 285L565 286L564 285M638 285L639 286L638 285M683 285L684 286L683 285M115 286L116 287L115 286M378 286L378 287L382 288L382 287L378 286z"/>
<path style="fill:#9c8ed1; stroke:none;" d="M380 286L381 287L380 286M408 286L409 287L408 286z"/>
<path style="fill:#e5bfff; stroke:none;" d="M409 286L410 287L409 286z"/>
<path style="fill:#9c8ed1; stroke:none;" d="M527 286L528 287L527 286M559 286L560 287L559 286z"/>
<path style="fill:#bb8adb; stroke:none;" d="M560 286L561 287L560 286z"/>
<path style="fill:#e5bfff; stroke:none;" d="M561.667 286.333L562.333 286.667L561.667 286.333M639.667 286.333L640.333 286.667L639.667 286.333M682 286L683 287L682 286z"/>
<path style="fill:#bb8adb; stroke:none;" d="M382 287L383 288L382 287z"/>
<path style="fill:#9c8ed1; stroke:none;" d="M383 287L384 288L383 287M405 287L406 288L405 287z"/>
<path style="fill:#bb8adb; stroke:none;" d="M406 287L407 288L406 287z"/>
<path style="fill:#e5bfff; stroke:none;" d="M407 287L408 288L407 287z"/>
<path style="fill:#bb8adb; stroke:none;" d="M529 287L530 288L529 287z"/>
<path style="fill:#9c8ed1; stroke:none;" d="M530 287L531 288L530 287M555 287L556 288L555 287z"/>
<path style="fill:#bb8adb; stroke:none;" d="M556 287L557 288L556 287z"/>
<path style="fill:#e5bfff; stroke:none;" d="M557 287L557 288L560 288L557 287M641 287L644 289L644 288L641 287z"/>
<path style="fill:#9c8ed1; stroke:none;" d="M642 287L643 288L642 287M679 287L678 289L679 287z"/>
<path style="fill:#e5bfff; stroke:none;" d="M680 287L681 288L680 287M383.667 288.333L384.333 288.667L383.667 288.333z"/>
<path style="fill:#9c8ed1; stroke:none;" d="M385.667 288.333L386.333 288.667L385.667 288.333M402.667 288.333L403.333 288.667L402.667 288.333z"/>
<path style="fill:#e5bfff; stroke:none;" d="M404 288L405 289L404 288M531.667 288.333L532.333 288.667L531.667 288.333z"/>
<path style="fill:#9c8ed1; stroke:none;" d="M533 288L534 289L533 288M549.667 288.333L550.333 288.667L549.667 288.333z"/>
<path style="fill:#bb8adb; stroke:none;" d="M551 288L552 289L551 288z"/>
<path style="fill:#e5bfff; stroke:none;" d="M552 288L552 289L555 289L552 288M679 288L680 289L679 288M313 289L314 290L313 289M329 289L330 290L329 289M388.667 289.333L389.333 289.667L388.667 289.333z"/>
<path style="fill:#9c8ed1; stroke:none;" d="M390 289L390 290L399 290L390 289z"/>
<path style="fill:#e5bfff; stroke:none;" d="M399.667 289.333L400.333 289.667L399.667 289.333z"/>
<path style="fill:#9c8ed1; stroke:none;" d="M455 289L455 290L471 290L455 289z"/>
<path style="fill:#e5bfff; stroke:none;" d="M536.667 289.333L537.333 289.667L536.667 289.333z"/>
<path style="fill:#bb8adb; stroke:none;" d="M538 289L539 290L538 289z"/>
<path style="fill:#9c8ed1; stroke:none;" d="M539 289L539 290L545 290L539 289z"/>
<path style="fill:#bb8adb; stroke:none;" d="M545 289L546 290L545 289z"/>
<path style="fill:#e5bfff; stroke:none;" d="M546.667 289.333L547.333 289.667L546.667 289.333M644 289L645 290L644 289z"/>
<path style="fill:#9c8ed1; stroke:none;" d="M645 289L646 290L645 289M676 289L677 290L676 289z"/>
<path style="fill:#e5bfff; stroke:none;" d="M677 289L678 290L677 289z"/>
<path style="fill:#bb8adb; stroke:none;" d="M688 289L689 290L688 289z"/>
<path style="fill:#e5bfff; stroke:none;" d="M646 290L647 291L646 290z"/>
<path style="fill:#9c8ed1; stroke:none;" d="M647 290L648 291L647 290M674 290L675 291L674 290z"/>
<path style="fill:#e5bfff; stroke:none;" d="M675 290L676 291L675 290M648 291L649 292L648 291z"/>
<path style="fill:#9c8ed1; stroke:none;" d="M649.667 291.333L650.333 291.667L649.667 291.333M671.667 291.333L672.333 291.667L671.667 291.333z"/>
<path style="fill:#e5bfff; stroke:none;" d="M673 291L674 292L673 291M651 292L652 293L651 292z"/>
<path style="fill:#bb8adb; stroke:none;" d="M652 292L653 293L652 292z"/>
<path style="fill:#9c8ed1; stroke:none;" d="M653 292L653 293L656 293L653 292M667 292L667 293L670 293L667 292z"/>
<path style="fill:#e5bfff; stroke:none;" d="M670.667 292.333L671.333 292.667L670.667 292.333M654 293L654 294L657 294L654 293z"/>
<path style="fill:#bb8adb; stroke:none;" d="M657.667 293.333L658.333 293.667L657.667 293.333z"/>
<path style="fill:#9c8ed1; stroke:none;" d="M659 293L659 294L663 294L659 293z"/>
<path style="fill:#bb8adb; stroke:none;" d="M663.667 293.333L664.333 293.667L663.667 293.333z"/>
<path style="fill:#e5bfff; stroke:none;" d="M665 293L665 294L668 294L665 293z"/>
<path style="fill:#9c8ed1; stroke:none;" d="M156 315L157 316L156 315z"/>
<path style="fill:#e5bfff; stroke:none;" d="M157 316L158 317L157 316z"/>
<path style="fill:#9c8ed1; stroke:none;" d="M158 316L159 317L158 316z"/>
<path style="fill:#e5bfff; stroke:none;" d="M174 316L175 317L174 316z"/>
<path style="fill:#bb8adb; stroke:none;" d="M159 317L160 318L159 317z"/>
<path style="fill:#9c8ed1; stroke:none;" d="M160 317L161 318L160 317z"/>
<path style="fill:#e5bfff; stroke:none;" d="M171.667 317.333L172.333 317.667L171.667 317.333M161 318L162 319L161 318z"/>
<path style="fill:#9c8ed1; stroke:none;" d="M162 318L163 319L162 318z"/>
<path style="fill:#e5bfff; stroke:none;" d="M169.667 318.333L170.333 318.667L169.667 318.333M163 319L164 320L163 319z"/>
<path style="fill:#9c8ed1; stroke:none;" d="M164.667 319.333L165.333 319.667L164.667 319.333z"/>
<path style="fill:#e5bfff; stroke:none;" d="M167.667 319.333L168.333 319.667L167.667 319.333M165.667 320.333L166.333 320.667L165.667 320.333z"/>
</svg>
